<svg width="44" height="49" viewBox="0 0 44 49" fill="none" xmlns="http://www.w3.org/2000/svg">
<g clip-path="url(#clip0_52_536)">
<path d="M32.205 0H11.795C5.28062 0 0 5.32639 0 11.8973V29.3465C0 35.0338 3.95738 39.7861 9.24571 40.9622V46.4893C9.24571 47.9904 10.4656 49.0016 11.7457 49.0016C12.3194 49.0016 12.9039 48.7993 13.3974 48.3482L21.1795 41.2438H32.2034C38.7178 41.2438 43.9985 35.9174 43.9985 29.3465V11.8973C44 5.32639 38.7194 0 32.205 0ZM39.9902 29.3449C39.9902 33.6742 36.4986 37.1976 32.205 37.1976H21.1811C20.1863 37.1976 19.2271 37.571 18.4899 38.243L13.2555 43.0218V40.9606C13.2555 39.0628 11.9462 37.4201 10.1078 37.0109C8.40673 36.6329 6.85832 35.6669 5.74946 34.2918C4.61129 32.8808 4.00981 31.1697 4.00981 29.3449V11.8957C4.00981 7.56646 7.50144 4.04302 11.795 4.04302H32.205C36.497 4.04302 39.9902 7.56491 39.9902 11.8957V29.3449Z" fill="#5E2FD6"/>
<path d="M26.8257 8.06426C24.9056 8.1887 23.0626 9.04895 21.6376 10.4863L17.9717 14.184C17.3286 14.8327 16.8027 15.5623 16.4109 16.351C17.054 16.1721 17.7187 16.071 18.3942 16.0523C18.4714 16.0507 18.5469 16.0492 18.6225 16.0492C19.443 16.0492 20.2434 16.1721 21.0006 16.4085L24.2547 13.1262C25.8186 11.5488 28.1381 11.3232 29.4259 12.6222C30.0165 13.218 30.3096 14.0642 30.2494 15.0054C30.1846 16.0352 29.7143 17.0417 28.9246 17.8366L25.2587 21.5342C24.9148 21.8796 24.5339 22.1658 24.1283 22.382C23.5993 22.6652 23.0302 22.8332 22.4519 22.8705C21.5204 22.9312 20.6798 22.6356 20.0892 22.0383C19.4646 21.4082 18.5022 21.3242 17.7882 21.7816C17.6756 21.8547 17.5692 21.9403 17.472 22.0383C16.7487 22.7678 16.7487 23.9501 17.472 24.6781C18.1614 25.3735 18.9803 25.8915 19.8825 26.2151C20.6104 26.4764 21.3924 26.6117 22.2051 26.6117C22.3655 26.6117 22.5274 26.6071 22.6894 26.5962C23.9771 26.5122 25.2294 26.0984 26.3445 25.3999C26.892 25.0592 27.4071 24.647 27.8759 24.1741L31.5418 20.4764C32.9668 19.0391 33.8197 17.1817 33.9431 15.2449C34.0726 13.218 33.3971 11.3481 32.043 9.98076C30.6874 8.61494 28.8352 7.93514 26.8257 8.06426Z" fill="#5E2FD6"/>
<path d="M22.2051 27.5451C21.4957 27.5451 20.8048 27.4549 20.1416 27.2744L18.3449 29.0867C17.6355 29.8023 16.7132 30.2114 15.7509 30.2379C14.824 30.2643 13.9727 29.9314 13.3465 29.2998C12.0279 27.9698 12.122 25.7079 13.5578 24.2597L15.9282 21.8687C16.3554 21.4378 16.8597 21.1173 17.4041 20.926C17.7635 20.7984 18.1398 20.7269 18.5223 20.7175C19.4476 20.6895 20.3005 21.024 20.9266 21.6556C21.6484 22.3852 22.8205 22.3836 23.5438 21.6556C23.5577 21.6416 23.57 21.6276 23.5839 21.6136C24.2655 20.8824 24.2517 19.7297 23.5438 19.0157C22.7727 18.2379 21.8489 17.6686 20.8356 17.3341C20.8001 17.3217 20.7631 17.3108 20.7277 17.2999C20.6428 17.2734 20.558 17.2485 20.4732 17.2252C20.3945 17.205 20.3143 17.1848 20.2357 17.1661C20.2125 17.1599 20.191 17.1552 20.1678 17.1505C20.0969 17.135 20.0259 17.121 19.955 17.107C19.8686 17.0899 19.7807 17.0759 19.6928 17.0619C19.6049 17.0494 19.517 17.037 19.4276 17.0277C19.3396 17.0183 19.2502 17.009 19.1607 17.0028C19.0744 16.9965 18.9865 16.9919 18.8986 16.9872H18.8847C18.7983 16.9841 18.712 16.9825 18.6256 16.9825C18.5577 16.9825 18.4899 16.9841 18.4205 16.9857C18.3603 16.9872 18.3017 16.9903 18.2416 16.9934C18.1922 16.995 18.1429 16.9981 18.0935 17.0028C18.0781 17.0028 18.0642 17.0043 18.0488 17.0059C17.9979 17.009 17.9455 17.0137 17.8946 17.0183C17.8853 17.0183 17.8776 17.0214 17.8684 17.0214C17.8159 17.0277 17.7619 17.0339 17.7095 17.0401C17.5213 17.0634 17.3347 17.0945 17.1497 17.1334C17.1034 17.1412 17.0587 17.1521 17.0124 17.163C16.8937 17.1894 16.7749 17.219 16.6577 17.2501C15.41 17.5986 14.2595 18.2737 13.311 19.2288L10.9406 21.6198C8.06127 24.5241 7.96719 29.1536 10.7293 31.9412C12.0341 33.2557 13.7722 33.9729 15.646 33.9729C15.7154 33.9729 15.7848 33.9729 15.8526 33.9713C17.7666 33.9169 19.5802 33.1204 20.9621 31.7266L23.3309 29.3372C23.9771 28.6854 24.4969 27.9324 24.8732 27.1126C24.1823 27.3398 23.4667 27.4813 22.7495 27.528C22.5783 27.5389 22.3948 27.5451 22.2051 27.5451Z" fill="#5E2FD6"/>
</g>
<defs>
<clipPath id="clip0_52_536">
<rect width="44" height="49" fill="white"/>
</clipPath>
</defs>
</svg>
