<svg width="24" height="24" viewBox="0 0 24 24" fill="none" xmlns="http://www.w3.org/2000/svg">
<path d="M11.7762 6.64668C11.7967 6.6027 11.8285 6.56562 11.8681 6.53969C11.9077 6.51375 11.9535 6.5 12.0002 6.5C12.0469 6.5 12.0926 6.51375 12.1322 6.53969C12.1718 6.56562 12.2037 6.6027 12.2242 6.64668L13.1117 8.53155C13.1295 8.56967 13.1558 8.60269 13.1885 8.62774C13.2212 8.65278 13.2592 8.66911 13.2993 8.67529L15.2871 8.97746C15.4901 9.00826 15.5727 9.27082 15.4243 9.4219L13.988 10.8902C13.9591 10.9198 13.9374 10.9564 13.925 10.9968C13.9125 11.0372 13.9097 11.0801 13.9166 11.1219L14.2554 13.196C14.263 13.2439 14.2577 13.2931 14.2402 13.338C14.2226 13.3829 14.1934 13.4218 14.1559 13.4503C14.1183 13.4788 14.074 13.4958 14.0278 13.4993C13.9816 13.5028 13.9353 13.4928 13.8942 13.4703L12.1164 12.4905C12.0807 12.471 12.0411 12.4608 12.0009 12.4608C11.9606 12.4608 11.921 12.471 11.8854 12.4905L10.1075 13.4703C10.0665 13.4924 10.0204 13.5021 9.97442 13.4984C9.92844 13.4947 9.88434 13.4776 9.84705 13.4492C9.80976 13.4208 9.78072 13.382 9.76319 13.3373C9.74565 13.2926 9.7403 13.2437 9.74773 13.196L10.0865 11.1219C10.0936 11.0803 10.091 11.0374 10.0788 10.997C10.0666 10.9566 10.0452 10.92 10.0165 10.8902L8.57461 9.4219C8.54158 9.38793 8.51824 9.34498 8.50719 9.29788C8.49615 9.25078 8.49785 9.20139 8.51209 9.15525C8.52634 9.1091 8.55257 9.06803 8.58784 9.03662C8.62311 9.00522 8.66604 8.98473 8.7118 8.97746L10.6997 8.67529C10.7397 8.66911 10.7777 8.65278 10.8104 8.62774C10.8431 8.60269 10.8695 8.56967 10.8872 8.53155L11.7762 6.64668Z" fill="black"/>
<path d="M4.5 4.87504C4.5 4.24514 4.76339 3.64104 5.23223 3.19563C5.70107 2.75023 6.33696 2.5 7 2.5H17C17.663 2.5 18.2989 2.75023 18.7678 3.19563C19.2366 3.64104 19.5 4.24514 19.5 4.87504V20.9065C19.4999 21.0139 19.4692 21.1193 19.4111 21.2115C19.353 21.3036 19.2697 21.379 19.17 21.4297C19.0703 21.4804 18.9581 21.5045 18.8451 21.4993C18.7322 21.4942 18.6229 21.4601 18.5287 21.4006L12 18.0577L5.47125 21.4006C5.37713 21.4601 5.26779 21.4942 5.15486 21.4993C5.04194 21.5045 4.92967 21.4804 4.83 21.4297C4.73033 21.379 4.64701 21.3036 4.58889 21.2115C4.53078 21.1193 4.50006 21.0139 4.5 20.9065V4.87504ZM7 3.68752C6.66848 3.68752 6.35054 3.81263 6.11612 4.03534C5.8817 4.25804 5.75 4.56009 5.75 4.87504V19.7974L11.6537 16.85C11.7563 16.7851 11.8768 16.7505 12 16.7505C12.1232 16.7505 12.2437 16.7851 12.3463 16.85L18.25 19.7974V4.87504C18.25 4.56009 18.1183 4.25804 17.8839 4.03534C17.6495 3.81263 17.3315 3.68752 17 3.68752H7Z" fill="black"/>
</svg>
