<svg width="24" height="24" viewBox="0 0 24 24" fill="none" xmlns="http://www.w3.org/2000/svg">
<path fill-rule="evenodd" clip-rule="evenodd" d="M4.5 20.9058V4.87495C4.5 4.24507 4.76339 3.64099 5.23223 3.19561C5.70107 2.75022 6.33696 2.5 7 2.5H17C17.663 2.5 18.2989 2.75022 18.7678 3.19561C19.2366 3.64099 19.5 4.24507 19.5 4.87495V20.9058C19.5001 21.0089 19.4719 21.1103 19.4182 21.1999C19.3645 21.2895 19.2872 21.3643 19.1939 21.4169C19.1005 21.4695 18.9944 21.4981 18.8859 21.4999C18.7774 21.5017 18.6702 21.4766 18.575 21.4271L12 18.0191L5.425 21.4271C5.32979 21.4766 5.22265 21.5017 5.11413 21.4999C5.00561 21.4981 4.89946 21.4695 4.80611 21.4169C4.71277 21.3643 4.63546 21.2895 4.58178 21.1999C4.52811 21.1103 4.49992 21.0089 4.5 20.9058ZM12.2 7.36864C12.1817 7.33303 12.1533 7.30302 12.1179 7.28202C12.0826 7.26102 12.0417 7.24989 12 7.24989C11.9583 7.24989 11.9174 7.26102 11.8821 7.28202C11.8467 7.30302 11.8183 7.33303 11.8 7.36864L11.0075 8.89454C10.9916 8.92541 10.9681 8.95214 10.9389 8.97241C10.9097 8.99269 10.8758 9.00591 10.84 9.01091L9.065 9.25553C9.02414 9.26142 8.98581 9.27801 8.95431 9.30343C8.92282 9.32885 8.8994 9.36211 8.88668 9.39946C8.87396 9.43682 8.87245 9.47681 8.88231 9.51494C8.89217 9.55306 8.91301 9.58783 8.9425 9.61534L10.225 10.804C10.2775 10.8527 10.3012 10.9227 10.2888 10.9916L9.9875 12.6707C9.98071 12.7095 9.98543 12.7493 10.0011 12.7856C10.0168 12.822 10.0429 12.8535 10.0764 12.8766C10.1099 12.8996 10.1495 12.9134 10.1908 12.9162C10.232 12.9191 10.2733 12.911 10.31 12.8928L11.8975 12.0995C11.9293 12.0837 11.9647 12.0755 12.0006 12.0755C12.0365 12.0755 12.0719 12.0837 12.1038 12.0995L13.6912 12.8928C13.7279 12.9106 13.769 12.9185 13.8101 12.9155C13.8511 12.9125 13.8905 12.8987 13.9238 12.8757C13.9571 12.8526 13.983 12.8213 13.9987 12.7851C14.0144 12.7489 14.0191 12.7093 14.0125 12.6707L13.71 10.9904C13.7036 10.9567 13.706 10.922 13.7169 10.8893C13.7278 10.8566 13.7468 10.8269 13.7725 10.8028L15.0575 9.61415C15.087 9.58664 15.1078 9.55188 15.1177 9.51375C15.1276 9.47562 15.126 9.43563 15.1133 9.39828C15.1006 9.36092 15.0772 9.32767 15.0457 9.30224C15.0142 9.27682 14.9759 9.26024 14.935 9.25435L13.16 9.00973C13.1242 9.00472 13.0903 8.9915 13.0611 8.97123C13.0319 8.95095 13.0084 8.92422 12.9925 8.89335L12.2 7.36864Z" fill="black"/>
</svg>
