<svg width="24" height="24" viewBox="0 0 24 24" fill="none" xmlns="http://www.w3.org/2000/svg">
<path d="M9 11.5C9 11.7652 8.89464 12.0196 8.70711 12.2071C8.51957 12.3946 8.26522 12.5 8 12.5C7.73478 12.5 7.48043 12.3946 7.29289 12.2071C7.10536 12.0196 7 11.7652 7 11.5C7 11.2348 7.10536 10.9804 7.29289 10.7929C7.48043 10.6054 7.73478 10.5 8 10.5C8.26522 10.5 8.51957 10.6054 8.70711 10.7929C8.89464 10.9804 9 11.2348 9 11.5ZM13 11.5C13 11.7652 12.8946 12.0196 12.7071 12.2071C12.5196 12.3946 12.2652 12.5 12 12.5C11.7348 12.5 11.4804 12.3946 11.2929 12.2071C11.1054 12.0196 11 11.7652 11 11.5C11 11.2348 11.1054 10.9804 11.2929 10.7929C11.4804 10.6054 11.7348 10.5 12 10.5C12.2652 10.5 12.5196 10.6054 12.7071 10.7929C12.8946 10.9804 13 11.2348 13 11.5ZM16 12.5C16.2652 12.5 16.5196 12.3946 16.7071 12.2071C16.8946 12.0196 17 11.7652 17 11.5C17 11.2348 16.8946 10.9804 16.7071 10.7929C16.5196 10.6054 16.2652 10.5 16 10.5C15.7348 10.5 15.4804 10.6054 15.2929 10.7929C15.1054 10.9804 15 11.2348 15 11.5C15 11.7652 15.1054 12.0196 15.2929 12.2071C15.4804 12.3946 15.7348 12.5 16 12.5Z" fill="black"/>
<path d="M18.832 14.0039C19.2368 14.045 19.5527 14.3871 19.5527 14.8027V16.9473H21.6973C22.1405 16.9473 22.5 17.3067 22.5 17.75L22.4961 17.832C22.4577 18.2098 22.1571 18.5105 21.7793 18.5488L21.6973 18.5527H19.5527V20.6973C19.5527 21.1129 19.2368 21.455 18.832 21.4961L18.75 21.5C18.3067 21.5 17.9473 21.1405 17.9473 20.6973V18.5527H15.8027C15.3871 18.5527 15.045 18.2368 15.0039 17.832L15 17.75C15 17.3067 15.3595 16.9473 15.8027 16.9473H17.9473V14.8027C17.9473 14.3595 18.3067 14 18.75 14L18.832 14.0039Z" fill="black"/>
<path d="M12 2C18.0746 2 22.9998 6.19773 23 11.376C23 13.0362 22.4916 14.5946 21.6035 15.9473H20.5527V15.0459C21.2403 13.9312 21.625 12.678 21.625 11.376C21.6248 7.10052 17.4944 3.33984 12 3.33984C6.50563 3.33984 2.3752 7.10052 2.375 11.376C2.375 13.3423 3.22512 15.1666 4.68262 16.5918C4.82534 16.7314 4.93472 16.9005 5.00293 17.0859C5.07104 17.2713 5.09638 17.4691 5.07715 17.665C4.98052 18.5726 4.79667 19.4693 4.5293 20.3438C6.44605 19.9111 7.61924 19.41 8.15137 19.1475C8.45351 18.9983 8.80171 18.9634 9.12891 19.0488C10.0654 19.2921 11.0308 19.4145 12 19.4131C12.9168 19.4131 13.795 19.3056 14.623 19.1113C14.9394 19.3857 15.3512 19.5527 15.8027 19.5527H16.9473V19.75C15.4598 20.3897 13.7798 20.7529 12 20.7529C10.9105 20.7544 9.82514 20.6163 8.77246 20.3428C8.0573 20.6951 6.51973 21.3371 4.00391 21.8232L3.97656 21.8281C3.66015 21.8889 3.34269 21.9444 3.02441 21.9951C2.75082 22.038 2.5399 21.7599 2.64844 21.5107C2.76953 21.2299 2.88186 20.945 2.98438 20.6572L2.98828 20.6426C3.34896 19.6378 3.59095 18.5963 3.70898 17.5381C2.02186 15.8905 1 13.7334 1 11.376C1.0002 6.19773 5.92537 2 12 2ZM19.5527 16.9473H20.8467C20.0537 17.8606 19.0704 18.645 17.9473 19.2617V18.5527H16.3418C17.6052 18.0176 18.6953 17.2576 19.5527 16.3457V16.9473Z" fill="black"/>
</svg>
