<svg width="24" height="24" viewBox="0 0 24 24" fill="none" xmlns="http://www.w3.org/2000/svg">
<path d="M9 11.5C9 11.7652 8.89464 12.0196 8.70711 12.2071C8.51957 12.3946 8.26522 12.5 8 12.5C7.73478 12.5 7.48043 12.3946 7.29289 12.2071C7.10536 12.0196 7 11.7652 7 11.5C7 11.2348 7.10536 10.9804 7.29289 10.7929C7.48043 10.6054 7.73478 10.5 8 10.5C8.26522 10.5 8.51957 10.6054 8.70711 10.7929C8.89464 10.9804 9 11.2348 9 11.5ZM13 11.5C13 11.7652 12.8946 12.0196 12.7071 12.2071C12.5196 12.3946 12.2652 12.5 12 12.5C11.7348 12.5 11.4804 12.3946 11.2929 12.2071C11.1054 12.0196 11 11.7652 11 11.5C11 11.2348 11.1054 10.9804 11.2929 10.7929C11.4804 10.6054 11.7348 10.5 12 10.5C12.2652 10.5 12.5196 10.6054 12.7071 10.7929C12.8946 10.9804 13 11.2348 13 11.5ZM16 12.5C16.2652 12.5 16.5196 12.3946 16.7071 12.2071C16.8946 12.0196 17 11.7652 17 11.5C17 11.2348 16.8946 10.9804 16.7071 10.7929C16.5196 10.6054 16.2652 10.5 16 10.5C15.7348 10.5 15.4804 10.6054 15.2929 10.7929C15.1054 10.9804 15 11.2348 15 11.5C15 11.7652 15.1054 12.0196 15.2929 12.2071C15.4804 12.3946 15.7348 12.5 16 12.5Z" fill="black"/>
<path d="M3.97688 21.8282L4.00437 21.8228C6.52063 21.3366 8.05788 20.695 8.77287 20.3427C9.82556 20.6162 10.9105 20.754 12 20.7526C18.0748 20.7526 23 16.5547 23 11.3763C23 6.1979 18.0748 2 12 2C5.92525 2 1 6.1979 1 11.3763C1 13.7338 2.02162 15.8903 3.70875 17.5378C3.59072 18.5962 3.34898 19.6379 2.98825 20.6427L2.98413 20.6575C2.88161 20.9453 2.76972 21.2298 2.64863 21.5107C2.54 21.7599 2.75038 22.0385 3.024 21.9956C3.34253 21.9448 3.6602 21.889 3.97688 21.8282ZM5.07687 17.6651C5.09614 17.469 5.07076 17.2712 5.00254 17.0857C4.93433 16.9003 4.82497 16.7317 4.68225 16.5922C3.22475 15.167 2.375 13.3426 2.375 11.3763C2.375 7.1007 6.5055 3.33947 12 3.33947C17.4945 3.33947 21.625 7.1007 21.625 11.3763C21.625 15.6532 17.4945 19.4131 12 19.4131C11.0308 19.4145 10.0655 19.292 9.129 19.0488C8.80172 18.9633 8.45358 18.9986 8.15138 19.1479C7.61925 19.4104 6.44637 19.9114 4.52962 20.344C4.79703 19.4695 4.98024 18.5727 5.07687 17.6651Z" fill="black"/>
</svg>
