<svg width="24" height="24" viewBox="0 0 24 24" fill="none" xmlns="http://www.w3.org/2000/svg">
<path d="M23 11.3763C23 16.5547 18.0748 20.7526 12 20.7526C10.9105 20.754 9.82556 20.6162 8.77287 20.3427C7.96987 20.7392 6.126 21.5 3.024 21.9956C2.749 22.0385 2.54 21.7599 2.64863 21.5107C3.13538 20.3909 3.57538 18.8988 3.70738 17.5378C2.023 15.8903 1 13.7338 1 11.3763C1 6.1979 5.92525 2 12 2C18.0748 2 23 6.1979 23 11.3763ZM7.875 11.3763C7.875 11.021 7.73013 10.6803 7.47227 10.4291C7.21441 10.1779 6.86467 10.0368 6.5 10.0368C6.13533 10.0368 5.78559 10.1779 5.52773 10.4291C5.26987 10.6803 5.125 11.021 5.125 11.3763C5.125 11.7315 5.26987 12.0722 5.52773 12.3234C5.78559 12.5746 6.13533 12.7158 6.5 12.7158C6.86467 12.7158 7.21441 12.5746 7.47227 12.3234C7.73013 12.0722 7.875 11.7315 7.875 11.3763ZM13.375 11.3763C13.375 11.021 13.2301 10.6803 12.9723 10.4291C12.7144 10.1779 12.3647 10.0368 12 10.0368C11.6353 10.0368 11.2856 10.1779 11.0277 10.4291C10.7699 10.6803 10.625 11.021 10.625 11.3763C10.625 11.7315 10.7699 12.0722 11.0277 12.3234C11.2856 12.5746 11.6353 12.7158 12 12.7158C12.3647 12.7158 12.7144 12.5746 12.9723 12.3234C13.2301 12.0722 13.375 11.7315 13.375 11.3763ZM17.5 12.7158C17.8647 12.7158 18.2144 12.5746 18.4723 12.3234C18.7301 12.0722 18.875 11.7315 18.875 11.3763C18.875 11.021 18.7301 10.6803 18.4723 10.4291C18.2144 10.1779 17.8647 10.0368 17.5 10.0368C17.1353 10.0368 16.7856 10.1779 16.5277 10.4291C16.2699 10.6803 16.125 11.021 16.125 11.3763C16.125 11.7315 16.2699 12.0722 16.5277 12.3234C16.7856 12.5746 17.1353 12.7158 17.5 12.7158Z" fill="black"/>
</svg>
