<svg width="24" height="24" viewBox="0 0 24 24" fill="none" xmlns="http://www.w3.org/2000/svg">
<path d="M18.1872 5.81282C18.4801 6.10571 18.4801 6.58058 18.1872 6.87348L13.0607 12L18.1872 17.1265C18.4801 17.4194 18.4801 17.8943 18.1872 18.1872C17.8943 18.4801 17.4194 18.4801 17.1265 18.1872L12 13.0607L6.87348 18.1872C6.58058 18.4801 6.10571 18.4801 5.81282 18.1872C5.51992 17.8943 5.51992 17.4194 5.81282 17.1265L10.9393 12L5.81282 6.87348C5.51992 6.58058 5.51992 6.10571 5.81282 5.81282C6.10571 5.51992 6.58058 5.51992 6.87348 5.81282L12 10.9393L17.1265 5.81282C17.4194 5.51992 17.8943 5.51992 18.1872 5.81282Z" fill="#222222"/>
</svg>
