<svg width="24" height="24" viewBox="0 0 24 24" fill="none" xmlns="http://www.w3.org/2000/svg">
<path d="M9.62134 4.05376C11.037 3.01576 12.9624 3.01591 14.3782 4.05376L19.2278 7.63579C20.1621 8.31211 20.7185 9.39352 20.7249 10.5469V17.0303C20.6648 19.1093 18.937 20.7505 16.8577 20.7042H6.95728C4.96176 20.6528 3.33381 19.048 3.27563 17.0303V10.5469C3.28203 9.3934 3.83821 8.31209 4.77271 7.63579L9.62134 4.05376ZM7.86743 15.4415C7.4872 15.4415 7.17921 15.7498 7.17896 16.1299C7.17896 16.5103 7.48705 16.8194 7.86743 16.8194H16.1331C16.5133 16.8192 16.8215 16.5102 16.8215 16.1299C16.8213 15.7499 16.5131 15.4417 16.1331 15.4415H7.86743Z" fill="black"/>
</svg>
