<svg width="24" height="24" viewBox="0 0 24 24" fill="none" xmlns="http://www.w3.org/2000/svg">
<path d="M9.54297 3.80153C11.0067 2.73295 12.9933 2.73295 14.457 3.80153L19.4609 7.50075C20.4209 8.19851 20.9923 9.31109 21 10.4978V17.1931C20.946 19.3471 19.1579 21.0511 17.0039 21.0007H6.99609C4.84208 21.0511 3.05402 19.3471 3 17.1931V10.5066C3.00549 9.31479 3.5809 8.19748 4.54785 7.50075L9.54297 3.80153ZM13.6562 4.8904C12.6698 4.17001 11.3302 4.17001 10.3438 4.8904L5.34863 8.58083C4.72625 9.02545 4.35441 9.74171 4.34961 10.5066V17.1931C4.40813 18.5994 5.58937 19.6958 6.99609 19.6502H17.0039C18.4125 19.7008 19.5967 18.6016 19.6504 17.1931V10.4978C19.6457 9.73777 19.2733 9.02652 18.6514 8.58961L13.6562 4.8904ZM16.0498 15.3757C16.4226 15.3757 16.7246 15.6778 16.7246 16.0506C16.7245 16.4233 16.4226 16.7254 16.0498 16.7254H7.9502C7.57744 16.7254 7.27546 16.4233 7.27539 16.0506C7.27539 15.6778 7.5774 15.3757 7.9502 15.3757H16.0498Z" fill="black"/>
</svg>
