<svg width="24" height="24" viewBox="0 0 24 24" fill="none" xmlns="http://www.w3.org/2000/svg">
<path fill-rule="evenodd" clip-rule="evenodd" d="M19.5801 16.21L19.8201 17.35C20.0475 18.3356 19.823 19.3713 19.2077 20.1741C18.5925 20.977 17.6509 21.4632 16.6401 21.5H7.36009C6.34927 21.4632 5.40766 20.977 4.79244 20.1741C4.17722 19.3713 3.95266 18.3356 4.18009 17.35L4.42009 16.21C4.69613 14.6668 6.02272 13.5327 7.59009 13.5H16.4101C17.9775 13.5327 19.3041 14.6668 19.5801 16.21ZM16.6401 19.99C17.1479 19.9841 17.6258 19.7488 17.9401 19.35V19.36C18.3258 18.8762 18.4761 18.2458 18.3501 17.64L18.1101 16.5C17.9769 15.6552 17.2647 15.0226 16.4101 14.99H7.5901C6.73546 15.0226 6.02326 15.6552 5.8901 16.5L5.6501 17.64C5.52725 18.2426 5.67736 18.8686 6.0601 19.35C6.37443 19.7488 6.85231 19.9841 7.3601 19.99H16.6401Z" fill="black"/>
<path fill-rule="evenodd" clip-rule="evenodd" d="M12 10.5C13.6569 10.5 15 9.15685 15 7.5C15 5.84315 13.6569 4.5 12 4.5C10.3431 4.5 9 5.84315 9 7.5C9 9.15685 10.3431 10.5 12 10.5ZM12 12C14.4853 12 16.5 9.98528 16.5 7.5C16.5 5.01472 14.4853 3 12 3C9.51472 3 7.5 5.01472 7.5 7.5C7.5 9.98528 9.51472 12 12 12Z" fill="black"/>
</svg>
